<?xml version="1.0" encoding="utf-8"?>
<!-- Generator: Adobe Illustrator 25.3.1, SVG Export Plug-In . SVG Version: 6.00 Build 0)  -->
<svg version="1.1" id="Layer_1" xmlns="http://www.w3.org/2000/svg" xmlns:xlink="http://www.w3.org/1999/xlink" x="0px" y="0px"
	 viewBox="0 0 486.7 208.5" style="enable-background:new 0 0 486.7 208.5;" xml:space="preserve">
<style type="text/css">
	.st0{fill:#C0CEFF;}
	.st1{enable-background:new    ;}
	.st2{fill:#3E68FF;}
</style>
<path class="st0" d="M329.9,3.4c-9.4-2.1-18.7,3.8-20.8,13.2c-0.8,3.8-0.4,7.7,1.3,11.2L250,84.7c-0.8-0.4-1.5-0.8-2.3-1.1
	c-4-1.5-8.4-1.6-12.3-0.1l-15.7-20.5c1.4-2,2.4-4.2,2.9-6.6c2-9.4-3.9-18.7-13.3-20.7c-8.5-1.8-17,2.8-20.1,11
	c-1.2,3.2-1.5,6.7-0.8,10l-41,23.1c-7.3-6.4-18.3-5.6-24.7,1.6c-6.4,7.3-5.6,18.3,1.6,24.7s18.3,5.6,24.7-1.6
	c3.8-4.4,5.2-10.3,3.8-15.9l40.7-22.9c4.8,4.6,11.8,6,18.1,3.7l15.7,20.5c-1.4,2-2.4,4.2-2.9,6.6c-1.9,9.4,4.1,18.6,13.6,20.6
	s18.6-4.1,20.6-13.6c0.8-3.8,0.3-7.7-1.4-11.2l60.2-56.7c2.7,1.6,5.7,2.4,8.8,2.4c9.6,0,17.4-7.8,17.4-17.4
	C343.5,12.3,337.9,5.2,329.9,3.4L329.9,3.4z M134.7,100c-3.9-0.7-6.5-4.4-5.9-8.3s4.4-6.5,8.3-5.9c3.9,0.7,6.5,4.4,5.9,8.3
	c-0.2,0.9-0.5,1.8-1,2.6C140.4,99.2,137.5,100.5,134.7,100z M204.2,60c-3.9-0.7-6.5-4.4-5.9-8.3c0.7-3.9,4.4-6.5,8.3-5.9
	c3.9,0.7,6.5,4.4,5.9,8.3c-0.2,0.9-0.5,1.8-1,2.6C209.9,59.3,207,60.6,204.2,60L204.2,60z M240.2,106.9c-3.9-0.7-6.5-4.4-5.9-8.3
	c0.7-3.9,4.4-6.5,8.3-5.9c3.9,0.7,6.5,4.4,5.9,8.3c-0.2,0.9-0.5,1.8-1,2.6C245.9,106.1,243.1,107.4,240.2,106.9L240.2,106.9z
	 M324.9,27.5c-3.9-0.7-6.5-4.4-5.9-8.3s4.4-6.5,8.3-5.9c3.9,0.7,6.5,4.4,5.9,8.3c-0.2,0.9-0.5,1.8-1,2.6
	C330.6,26.7,327.8,28,324.9,27.5L324.9,27.5z"/>
<g class="st1">
	<path class="st2" d="M40.8,172.9c-3.9,3.4-9.3,5.1-16.1,5.1c-7,0-12.3-1.7-16.2-5c-3.8-3.4-5.7-8.5-5.7-15.6v-32h11.3v32
		c0,1.4,0.1,2.8,0.4,4.1c0.2,1.3,0.7,2.5,1.5,3.6c0.8,1,1.8,1.9,3.2,2.5c1.4,0.6,3.2,1,5.5,1c4,0,6.8-0.9,8.4-2.7
		c1.5-1.8,2.3-4.6,2.3-8.5v-32h11.3v32C46.6,164.4,44.7,169.5,40.8,172.9z"/>
	<path class="st2" d="M80.5,125.4c2.4,0,4.7,0.2,6.7,0.6c2,0.4,3.7,1.1,5.2,2.1c1.4,1,2.6,2.3,3.3,3.9c0.8,1.6,1.2,3.6,1.2,6
		c0,2.6-0.6,4.8-1.8,6.5c-1.2,1.7-2.9,3.1-5.2,4.2c3.2,0.9,5.5,2.5,7.1,4.8c1.6,2.3,2.3,5,2.3,8.2c0,2.6-0.5,4.8-1.5,6.7
		c-1,1.9-2.4,3.4-4.1,4.6c-1.7,1.2-3.6,2.1-5.8,2.7c-2.2,0.6-4.4,0.9-6.7,0.9H56.3v-51.4H80.5z M79.1,146.2c2,0,3.7-0.5,5-1.4
		c1.3-1,1.9-2.5,1.9-4.7c0-1.2-0.2-2.2-0.6-3c-0.4-0.8-1-1.4-1.7-1.8c-0.7-0.4-1.5-0.7-2.5-0.9c-0.9-0.2-1.9-0.3-2.9-0.3H67.6v12
		H79.1z M79.7,168.1c1.1,0,2.2-0.1,3.2-0.3c1-0.2,1.9-0.6,2.7-1.1c0.8-0.5,1.4-1.2,1.8-2.1c0.5-0.9,0.7-2,0.7-3.3
		c0-2.6-0.7-4.5-2.2-5.7c-1.5-1.1-3.5-1.7-5.9-1.7H67.6v14.1H79.7z"/>
	<path class="st2" d="M140,139.1c-0.7-1.1-1.5-2-2.5-2.8c-1-0.8-2.1-1.5-3.4-1.9c-1.3-0.5-2.6-0.7-4-0.7c-2.5,0-4.7,0.5-6.5,1.5
		c-1.8,1-3.2,2.3-4.3,4c-1.1,1.7-1.9,3.5-2.4,5.7c-0.5,2.1-0.8,4.3-0.8,6.6c0,2.2,0.3,4.3,0.8,6.3c0.5,2,1.3,3.9,2.4,5.5
		c1.1,1.6,2.5,2.9,4.3,3.9c1.8,1,3.9,1.5,6.5,1.5c3.5,0,6.2-1.1,8.1-3.2c1.9-2.1,3.1-4.9,3.6-8.4h10.9c-0.3,3.2-1,6.1-2.2,8.7
		c-1.2,2.6-2.8,4.8-4.8,6.6c-2,1.8-4.3,3.2-6.9,4.2c-2.6,1-5.5,1.4-8.7,1.4c-3.9,0-7.5-0.7-10.6-2.1c-3.1-1.4-5.8-3.3-8-5.7
		c-2.2-2.4-3.8-5.2-5-8.5c-1.2-3.2-1.7-6.7-1.7-10.5c0-3.8,0.6-7.4,1.7-10.7c1.2-3.3,2.8-6.2,5-8.6c2.2-2.4,4.8-4.4,8-5.8
		c3.1-1.4,6.7-2.1,10.6-2.1c2.8,0,5.5,0.4,8,1.2c2.5,0.8,4.8,2,6.8,3.6c2,1.6,3.6,3.5,4.9,5.8c1.3,2.3,2.1,4.9,2.4,7.9h-10.9
		C141.1,141.4,140.7,140.2,140,139.1z"/>
	<path class="st2" d="M190.8,176.4c-2.4,1-4.9,1.5-7.4,1.5c-3.9,0-7.5-0.7-10.6-2.1c-3.1-1.4-5.8-3.3-8-5.7c-2.2-2.4-3.8-5.2-5-8.5
		c-1.2-3.2-1.7-6.7-1.7-10.5c0-3.8,0.6-7.4,1.7-10.7c1.2-3.3,2.8-6.2,5-8.6c2.2-2.4,4.8-4.4,8-5.8c3.1-1.4,6.7-2.1,10.6-2.1
		c2.6,0,5.2,0.4,7.7,1.2c2.5,0.8,4.7,2,6.7,3.5c2,1.5,3.6,3.4,4.9,5.7c1.3,2.3,2.1,4.8,2.4,7.8h-10.8c-0.7-2.9-2-5-3.9-6.5
		c-1.9-1.4-4.2-2.2-7-2.2c-2.5,0-4.7,0.5-6.5,1.5c-1.8,1-3.2,2.3-4.3,4c-1.1,1.7-1.9,3.5-2.4,5.7c-0.5,2.1-0.8,4.3-0.8,6.6
		c0,2.2,0.3,4.3,0.8,6.3c0.5,2,1.3,3.9,2.4,5.5c1.1,1.6,2.5,2.9,4.3,3.9c1.8,1,3.9,1.5,6.5,1.5c3.7,0,6.6-0.9,8.7-2.8
		c2-1.9,3.2-4.6,3.6-8.2h-11.4V149h21.6v27.8h-7.2l-1.2-5.8C195.5,173.6,193.3,175.4,190.8,176.4z"/>
	<path class="st2" d="M223.6,139.6v6.9h0.1c0.5-1.2,1.1-2.2,1.9-3.2c0.8-1,1.8-1.8,2.8-2.5c1.1-0.7,2.2-1.2,3.4-1.6
		c1.2-0.4,2.4-0.6,3.7-0.6c0.7,0,1.4,0.1,2.2,0.4v9.5c-0.5-0.1-1.1-0.2-1.7-0.3c-0.7-0.1-1.3-0.1-1.9-0.1c-1.9,0-3.5,0.3-4.8,0.9
		c-1.3,0.6-2.3,1.5-3.1,2.6s-1.4,2.3-1.7,3.8c-0.3,1.4-0.5,3-0.5,4.7v16.8h-10.2v-37.2H223.6z"/>
	<path class="st2" d="M241.5,151.1c0.1-2.4,0.7-4.4,1.8-6s2.4-2.9,4-3.8c1.6-1,3.5-1.6,5.5-2.1c2-0.4,4.1-0.6,6.2-0.6
		c1.9,0,3.8,0.1,5.7,0.4c1.9,0.3,3.7,0.8,5.3,1.5c1.6,0.8,2.9,1.8,3.9,3.2s1.5,3.2,1.5,5.4v19.4c0,1.7,0.1,3.3,0.3,4.8
		c0.2,1.5,0.5,2.7,1,3.5h-10.4c-0.2-0.6-0.3-1.2-0.5-1.8c-0.1-0.6-0.2-1.2-0.3-1.8c-1.6,1.7-3.6,2.9-5.8,3.5c-2.2,0.7-4.5,1-6.8,1
		c-1.8,0-3.4-0.2-5-0.6s-2.9-1.1-4-2c-1.2-0.9-2.1-2.1-2.7-3.5c-0.6-1.4-1-3-1-5c0-2.1,0.4-3.9,1.1-5.2c0.7-1.4,1.7-2.5,2.9-3.3
		c1.2-0.8,2.5-1.4,4-1.8c1.5-0.4,3-0.7,4.6-1c1.5-0.2,3-0.4,4.5-0.6c1.5-0.1,2.8-0.4,4-0.6c1.2-0.3,2.1-0.7,2.7-1.3
		c0.7-0.6,1-1.4,0.9-2.4c0-1.1-0.2-2-0.5-2.6c-0.4-0.6-0.8-1.2-1.4-1.5c-0.6-0.4-1.3-0.6-2.1-0.7c-0.8-0.1-1.6-0.2-2.6-0.2
		c-2,0-3.6,0.4-4.8,1.3c-1.2,0.9-1.8,2.3-2,4.3H241.5z M265.1,158.6c-0.4,0.4-1,0.7-1.6,0.9c-0.6,0.2-1.3,0.4-2.1,0.5
		c-0.7,0.1-1.5,0.3-2.3,0.4c-0.8,0.1-1.6,0.2-2.4,0.4c-0.8,0.1-1.5,0.3-2.3,0.6c-0.7,0.2-1.4,0.6-1.9,1c-0.6,0.4-1,0.9-1.3,1.5
		c-0.3,0.6-0.5,1.4-0.5,2.4c0,0.9,0.2,1.7,0.5,2.3c0.3,0.6,0.8,1.1,1.4,1.5c0.6,0.4,1.2,0.6,2,0.8c0.8,0.1,1.6,0.2,2.4,0.2
		c2,0,3.6-0.3,4.7-1c1.1-0.7,1.9-1.5,2.4-2.4c0.5-0.9,0.9-1.9,1-2.8c0.1-1,0.2-1.7,0.2-2.3V158.6z"/>
	<path class="st2" d="M309.7,172.1c-1.2,2-2.8,3.5-4.7,4.4c-1.9,0.9-4.1,1.3-6.6,1.3c-2.8,0-5.2-0.5-7.3-1.6
		c-2.1-1.1-3.9-2.5-5.2-4.4c-1.4-1.8-2.4-4-3.1-6.4c-0.7-2.4-1-4.9-1-7.5c0-2.5,0.3-4.9,1-7.2c0.7-2.3,1.7-4.4,3.1-6.2
		c1.4-1.8,3.1-3.2,5.1-4.3c2.1-1.1,4.5-1.6,7.2-1.6c2.2,0,4.3,0.5,6.3,1.4c2,0.9,3.6,2.3,4.7,4.1h0.1v-18.7h10.2v51.4h-9.7v-4.8
		H309.7z M309.3,153.7c-0.3-1.4-0.8-2.7-1.5-3.7c-0.7-1.1-1.6-2-2.7-2.6c-1.1-0.7-2.5-1-4.2-1s-3.1,0.3-4.2,1
		c-1.2,0.7-2.1,1.6-2.8,2.7c-0.7,1.1-1.2,2.4-1.5,3.8c-0.3,1.4-0.5,2.9-0.5,4.4c0,1.4,0.2,2.9,0.5,4.3c0.3,1.4,0.9,2.7,1.6,3.9
		c0.7,1.1,1.7,2,2.8,2.7c1.1,0.7,2.5,1,4.1,1c1.7,0,3.1-0.3,4.2-1c1.1-0.7,2-1.6,2.7-2.7c0.7-1.1,1.2-2.4,1.4-3.9
		c0.3-1.4,0.4-2.9,0.4-4.5S309.5,155.1,309.3,153.7z"/>
	<path class="st2" d="M338.2,167.9c1.5,1.5,3.7,2.2,6.6,2.2c2.1,0,3.8-0.5,5.3-1.5c1.5-1,2.4-2.1,2.7-3.3h9
		c-1.4,4.5-3.6,7.7-6.6,9.6c-3,1.9-6.6,2.9-10.8,2.9c-2.9,0-5.6-0.5-7.9-1.4c-2.4-0.9-4.3-2.3-6-4c-1.6-1.7-2.9-3.8-3.8-6.2
		c-0.9-2.4-1.3-5-1.3-7.9c0-2.8,0.5-5.4,1.4-7.8c0.9-2.4,2.2-4.5,3.9-6.2c1.7-1.8,3.7-3.1,6-4.1c2.3-1,4.9-1.5,7.7-1.5
		c3.2,0,5.9,0.6,8.3,1.8c2.4,1.2,4.3,2.9,5.8,4.9c1.5,2.1,2.6,4.4,3.3,7.1c0.7,2.6,0.9,5.4,0.7,8.3h-26.9
		C335.8,164,336.7,166.4,338.2,167.9z M349.8,148.3c-1.2-1.3-3.1-2-5.6-2c-1.6,0-3,0.3-4.1,0.8c-1.1,0.6-1.9,1.2-2.6,2.1
		c-0.6,0.8-1.1,1.7-1.4,2.6c-0.3,0.9-0.4,1.7-0.5,2.4h16.6C351.8,151.6,351,149.7,349.8,148.3z"/>
	<path class="st2" d="M393.9,125.4c2.4,0,4.7,0.2,6.7,0.6c2,0.4,3.7,1.1,5.2,2.1c1.4,1,2.6,2.3,3.3,3.9c0.8,1.6,1.2,3.6,1.2,6
		c0,2.6-0.6,4.8-1.8,6.5c-1.2,1.7-2.9,3.1-5.2,4.2c3.2,0.9,5.5,2.5,7.1,4.8c1.6,2.3,2.3,5,2.3,8.2c0,2.6-0.5,4.8-1.5,6.7
		c-1,1.9-2.4,3.4-4.1,4.6c-1.7,1.2-3.6,2.1-5.8,2.7c-2.2,0.6-4.4,0.9-6.7,0.9h-24.9v-51.4H393.9z M392.4,146.2c2,0,3.7-0.5,5-1.4
		c1.3-1,1.9-2.5,1.9-4.7c0-1.2-0.2-2.2-0.6-3c-0.4-0.8-1-1.4-1.7-1.8c-0.7-0.4-1.5-0.7-2.5-0.9c-0.9-0.2-1.9-0.3-2.9-0.3H381v12
		H392.4z M393.1,168.1c1.1,0,2.2-0.1,3.2-0.3c1-0.2,1.9-0.6,2.7-1.1c0.8-0.5,1.4-1.2,1.8-2.1c0.5-0.9,0.7-2,0.7-3.3
		c0-2.6-0.7-4.5-2.2-5.7c-1.5-1.1-3.5-1.7-5.9-1.7H381v14.1H393.1z"/>
	<path class="st2" d="M419.5,150.2c0.9-2.4,2.2-4.5,3.9-6.2c1.7-1.7,3.7-3,6-4c2.4-0.9,5-1.4,7.9-1.4c2.9,0,5.6,0.5,8,1.4
		c2.4,0.9,4.4,2.3,6.1,4c1.7,1.7,3,3.8,3.9,6.2c0.9,2.4,1.4,5.1,1.4,8.1c0,3-0.5,5.7-1.4,8.1c-0.9,2.4-2.2,4.5-3.9,6.2
		c-1.7,1.7-3.7,3-6.1,3.9c-2.4,0.9-5,1.4-8,1.4c-2.9,0-5.6-0.5-7.9-1.4c-2.4-0.9-4.4-2.2-6-3.9c-1.7-1.7-3-3.8-3.9-6.2
		c-0.9-2.4-1.4-5.1-1.4-8.1C418.1,155.3,418.6,152.6,419.5,150.2z M428.8,162.6c0.3,1.4,0.8,2.7,1.5,3.8c0.7,1.1,1.6,2,2.8,2.7
		c1.2,0.7,2.6,1,4.3,1c1.7,0,3.2-0.3,4.4-1c1.2-0.7,2.1-1.6,2.8-2.7c0.7-1.1,1.2-2.4,1.5-3.8c0.3-1.4,0.4-2.9,0.4-4.4
		c0-1.5-0.1-3-0.4-4.4c-0.3-1.4-0.8-2.7-1.5-3.8c-0.7-1.1-1.6-2-2.8-2.7c-1.2-0.7-2.6-1-4.4-1c-1.7,0-3.2,0.3-4.3,1
		c-1.2,0.7-2.1,1.6-2.8,2.7c-0.7,1.1-1.2,2.4-1.5,3.8c-0.3,1.4-0.4,2.9-0.4,4.4C428.3,159.8,428.5,161.2,428.8,162.6z"/>
	<path class="st2" d="M483.7,139.6v6.8h-7.5v18.4c0,1.7,0.3,2.9,0.9,3.5c0.6,0.6,1.7,0.9,3.5,0.9c0.6,0,1.1,0,1.7-0.1
		c0.5,0,1-0.1,1.5-0.2v7.9c-0.9,0.1-1.8,0.2-2.9,0.3c-1.1,0-2.1,0.1-3.1,0.1c-1.6,0-3.1-0.1-4.5-0.3s-2.7-0.6-3.7-1.3
		c-1.1-0.6-1.9-1.5-2.6-2.7c-0.6-1.2-0.9-2.7-0.9-4.5v-22h-6.2v-6.8h6.2v-11.2h10.2v11.2H483.7z"/>
</g>
</svg>
