<svg id="Layer_1" data-name="Layer 1" xmlns="http://www.w3.org/2000/svg" viewBox="0 0 486.71 208.47"><defs><style>.cls-1{fill:#c0ceff;}.cls-2{font-size:72px;fill:#3e68ff;font-family:HelveticaNeue-Bold, Helvetica Neue;font-weight:700;}</style></defs><path class="cls-1" d="M793.77,267.39a17.41,17.41,0,0,0-19.5,24.46l-60.35,56.84a18.09,18.09,0,0,0-2.35-1.11,17.35,17.35,0,0,0-12.35-.06l-15.71-20.45a17.71,17.71,0,0,0,2.87-6.61A17.43,17.43,0,0,0,653,310.71a17.29,17.29,0,0,0-.76,10l-41,23.13a17.47,17.47,0,1,0,5.39,8.72l40.65-22.93a17.41,17.41,0,0,0,18.08,3.68l15.71,20.45a17.71,17.71,0,0,0-2.87,6.61,17.43,17.43,0,1,0,32.71-4.21l60.24-56.73A16.93,16.93,0,0,0,790,301.8a17.41,17.41,0,0,0,3.77-34.41ZM598.58,364a7.19,7.19,0,1,1,7.29-3.24A7.2,7.2,0,0,1,598.58,364Zm69.49-40a7.19,7.19,0,1,1,7.3-3.24A7.2,7.2,0,0,1,668.07,324.07Zm36,46.85a7.19,7.19,0,1,1,7.3-3.23A7.19,7.19,0,0,1,704.08,370.92Zm84.71-79.42a7.19,7.19,0,1,1,7.29-3.24A7.2,7.2,0,0,1,788.79,291.5Z" transform="translate(-461.9 -266.97)"/><text class="cls-2" transform="translate(0 173.84)">UBCGradeBot</text></svg>